<svg width="75" height="49" viewBox="0 0 75 49" fill="none" xmlns="http://www.w3.org/2000/svg">
<g>
<path d="M26.6283 36.74H27.4283V45.78H26.6283V36.74ZM25.0983 40.36H26.8383V41.05H25.0983V40.36ZM24.5783 36.94H25.3583V45.32H24.5783V36.94ZM20.0783 42.86H20.6683C21.9883 42.86 22.8883 42.81 23.9383 42.59L24.0183 43.28C22.9383 43.51 22.0283 43.55 20.6683 43.55H20.0783V42.86ZM20.0783 37.84H23.4383V38.52H20.8983V43.17H20.0783V37.84ZM32.7875 38.75H35.5175V39.44H32.7875V38.75ZM32.7875 41.61H35.5175V42.3H32.7875V41.61ZM31.1275 37.43C32.4375 37.43 33.3775 38.66 33.3775 40.58C33.3775 42.51 32.4375 43.74 31.1275 43.74C29.8075 43.74 28.8775 42.51 28.8775 40.58C28.8775 38.66 29.8075 37.43 31.1275 37.43ZM31.1275 38.18C30.2575 38.18 29.6575 39.12 29.6575 40.58C29.6575 42.05 30.2575 43.01 31.1275 43.01C31.9975 43.01 32.5975 42.05 32.5975 40.58C32.5975 39.12 31.9975 38.18 31.1275 38.18ZM35.3375 36.73H36.1575V45.79H35.3375V36.73ZM46.6632 36.74H47.4932V45.78H46.6632V36.74ZM44.0132 37.71H44.8332C44.8332 40.33 43.6532 42.62 40.6332 44.1L40.1932 43.43C42.8032 42.17 44.0132 40.25 44.0132 37.85V37.71ZM40.6032 37.71H44.3732V38.39H40.6032V37.71ZM49.0325 41.71H57.2325V42.39H49.0325V41.71ZM50.0725 36.97H56.1725V39.16H50.9125V40.38H50.0925V38.55H55.3625V37.62H50.0725V36.97ZM50.0925 40.11H56.3725V40.76H50.0925V40.11ZM52.7125 40.45H53.5425V42.05H52.7125V40.45ZM49.9425 43.08H56.2325V45.7H55.4025V43.76H49.9425V43.08Z" fill="black"/>
<g clip-path="url(#clip0_141_59)">
<path d="M47 15V28H29V15M36 19H40M27 10H49V15H27V10Z" stroke="#1E1E1E" stroke-width="2" stroke-linecap="round" stroke-linejoin="round"/>
</g>
</g>
<defs>
<clipPath id="clip0_141_59">
<rect width="24" height="24" fill="white" transform="translate(26 7)"/>
</clipPath>
</defs>
</svg>
