<svg width="75" height="49" viewBox="0 0 75 49" fill="none" xmlns="http://www.w3.org/2000/svg">
<g>
<path d="M30.5979 36.74H31.3979V45.78H30.5979V36.74ZM29.0779 40.42H30.8179V41.1H29.0779V40.42ZM28.5479 36.94H29.3279V45.32H28.5479V36.94ZM24.1679 37.83H24.9979V43.05H24.1679V37.83ZM24.1679 42.72H24.7479C25.6779 42.72 26.7179 42.66 27.8979 42.43L27.9879 43.15C26.7579 43.39 25.7179 43.44 24.7479 43.44H24.1679V42.72ZM39.9236 39.08H41.9636V39.77H39.9236V39.08ZM41.7036 36.74H42.5336V42.13H41.7036V36.74ZM39.5636 42.4C41.4236 42.4 42.5736 43.03 42.5736 44.09C42.5736 45.16 41.4236 45.77 39.5636 45.77C37.6936 45.77 36.5436 45.16 36.5436 44.09C36.5436 43.03 37.6936 42.4 39.5636 42.4ZM39.5636 43.05C38.2036 43.05 37.3736 43.43 37.3736 44.09C37.3736 44.74 38.2036 45.12 39.5636 45.12C40.9236 45.12 41.7536 44.74 41.7536 44.09C41.7536 43.43 40.9236 43.05 39.5636 43.05ZM37.4036 37.65H38.0836V38.38C38.0836 40.05 37.0636 41.48 35.5636 42.04L35.1336 41.38C36.4736 40.89 37.4036 39.68 37.4036 38.38V37.65ZM37.5636 37.65H38.2336V38.38C38.2336 39.55 39.1136 40.67 40.4236 41.13L40.0036 41.79C38.5336 41.26 37.5636 39.9 37.5636 38.38V37.65ZM35.3836 37.4H40.2136V38.08H35.3836V37.4ZM44.0629 43.94H52.2529V44.63H44.0629V43.94ZM47.7229 41.78H48.5529V44.14H47.7229V41.78ZM45.0229 37.38H45.8429V38.99H50.4529V37.38H51.2729V42H45.0229V37.38ZM45.8429 39.66V41.32H50.4529V39.66H45.8429Z" fill="black"/>
<path d="M46 28V26C46 24.9391 45.5786 23.9217 44.8284 23.1716C44.0783 22.4214 43.0609 22 42 22H34C32.9391 22 31.9217 22.4214 31.1716 23.1716C30.4214 23.9217 30 24.9391 30 26V28M42 14C42 16.2091 40.2091 18 38 18C35.7909 18 34 16.2091 34 14C34 11.7909 35.7909 10 38 10C40.2091 10 42 11.7909 42 14Z" stroke="#1E1E1E" stroke-width="2" stroke-linecap="round" stroke-linejoin="round"/>
</g>
</svg>
