<svg width="75" height="49" viewBox="0 0 75 49" fill="none" xmlns="http://www.w3.org/2000/svg">
<path fill-rule="evenodd" clip-rule="evenodd" d="M37.3861 8.21065C37.7472 7.92978 38.2528 7.92978 38.6139 8.21065L47.6139 15.2106C47.8575 15.4001 48 15.6914 48 16V27C48 27.7957 47.6839 28.5587 47.1213 29.1213C46.5587 29.6839 45.7957 30 45 30H41V21C41 19.8954 40.1046 19 39 19H37C35.8954 19 35 19.8954 35 21V30H31C30.2043 30 29.4413 29.6839 28.8787 29.1213C28.3161 28.5587 28 27.7957 28 27V16C28 15.6914 28.1425 15.4001 28.3861 15.2106L37.3861 8.21065Z" fill="black"/>
<path d="M17.6691 36.74H18.4691V45.78H17.6691V36.74ZM16.1391 40.36H17.8791V41.05H16.1391V40.36ZM15.6191 36.94H16.3991V45.32H15.6191V36.94ZM11.1191 42.86H11.7091C13.0291 42.86 13.9291 42.81 14.9791 42.59L15.0591 43.28C13.9791 43.51 13.0691 43.55 11.7091 43.55H11.1191V42.86ZM11.1191 37.84H14.4791V38.52H11.9391V43.17H11.1191V37.84ZM23.8283 38.75H26.5583V39.44H23.8283V38.75ZM23.8283 41.61H26.5583V42.3H23.8283V41.61ZM22.1683 37.43C23.4783 37.43 24.4183 38.66 24.4183 40.58C24.4183 42.51 23.4783 43.74 22.1683 43.74C20.8483 43.74 19.9183 42.51 19.9183 40.58C19.9183 38.66 20.8483 37.43 22.1683 37.43ZM22.1683 38.18C21.2983 38.18 20.6983 39.12 20.6983 40.58C20.6983 42.05 21.2983 43.01 22.1683 43.01C23.0383 43.01 23.6383 42.05 23.6383 40.58C23.6383 39.12 23.0383 38.18 22.1683 38.18ZM26.3783 36.73H27.1983V45.79H26.3783V36.73ZM32.3775 41.01H33.1975V42.4H32.3775V41.01ZM28.7075 40.55H36.8775V41.22H28.7075V40.55ZM29.7675 37.04H35.8175V39.79H29.7675V37.04ZM35.0075 37.7H30.5875V39.13H35.0075V37.7ZM29.6975 42.1H35.8375V44.13H30.5375V45.23H29.7175V43.53H35.0175V42.74H29.6975V42.1ZM29.7175 45.03H36.1075V45.68H29.7175V45.03ZM41.3468 41.54H42.1668V43.1H41.3468V41.54ZM37.6668 41.1H45.8368V41.78H37.6668V41.1ZM38.4268 37.02H45.0668V37.7H38.4268V37.02ZM38.4668 39.59H45.0268V40.27H38.4668V39.59ZM39.7968 37.32H40.6268V40.03H39.7968V37.32ZM42.8768 37.32H43.6968V40.03H42.8768V37.32ZM38.6668 42.83H44.8368V45.66H38.6668V42.83ZM44.0268 43.49H39.4868V44.99H44.0268V43.49ZM49.5225 37.44H53.5225V38.12H49.5225V37.44ZM50.8825 39.46H51.7025V41.72H50.8825V39.46ZM53.1925 37.44H54.0125V37.92C54.0125 38.51 54.0125 39.41 53.7725 40.6L52.9625 40.51C53.1925 39.32 53.1925 38.5 53.1925 37.92V37.44ZM55.2425 36.74H56.0725V43.55H55.2425V36.74ZM55.6925 39.68H57.3625V40.37H55.6925V39.68ZM50.3625 44.9H56.3625V45.58H50.3625V44.9ZM50.3625 42.92H51.1825V45.11H50.3625V42.92ZM49.0625 42.11L48.9725 41.43C50.5825 41.43 52.8025 41.39 54.6325 41.14L54.6925 41.74C52.8125 42.07 50.6525 42.11 49.0625 42.11ZM64.5817 36.73H65.4117V45.79H64.5817V36.73ZM58.5217 42.92H59.2717C60.7817 42.92 62.1317 42.86 63.7317 42.6L63.8217 43.28C62.1817 43.55 60.8217 43.61 59.2717 43.61H58.5217V42.92ZM58.5017 37.58H62.6817V40.81H59.3517V43.18H58.5217V40.13H61.8417V38.26H58.5017V37.58Z" fill="black"/>
</svg>
