<svg width="75" height="49" viewBox="0 0 75 49" fill="none" xmlns="http://www.w3.org/2000/svg">
<g opacity="0.5">
<path d="M25.9383 36.73H26.7683V43.28H25.9383V36.73ZM26.5183 39.42H28.1083V40.11H26.5183V39.42ZM20.1683 41H20.8683C22.7283 41 23.7783 40.95 24.9883 40.7L25.0783 41.37C23.8383 41.63 22.7683 41.69 20.8683 41.69H20.1683V41ZM20.1683 37.51H24.1583V38.2H20.9883V41.37H20.1683V37.51ZM21.1383 44.9H27.1783V45.58H21.1383V44.9ZM21.1383 42.63H21.9683V45.21H21.1383V42.63ZM32.3975 40.31H34.1075V40.99H32.3975V40.31ZM30.5575 39.05H31.1975V39.52C31.1975 41.32 30.4475 43.14 29.1275 43.93L28.6375 43.3C29.8575 42.59 30.5575 41 30.5575 39.52V39.05ZM30.7075 39.05H31.3475V39.52C31.3475 40.96 32.0675 42.45 33.2875 43.11L32.8175 43.73C31.4875 42.99 30.7075 41.28 30.7075 39.52V39.05ZM28.8875 38.4H33.0175V39.09H28.8875V38.4ZM30.5575 37.06H31.3575V38.93H30.5575V37.06ZM35.5875 36.74H36.3875V45.78H35.5875V36.74ZM33.7775 36.95H34.5575V45.32H33.7775V36.95ZM44.9032 39.08H46.9432V39.77H44.9032V39.08ZM46.6832 36.74H47.5132V42.13H46.6832V36.74ZM44.5432 42.4C46.4032 42.4 47.5532 43.03 47.5532 44.09C47.5532 45.16 46.4032 45.77 44.5432 45.77C42.6732 45.77 41.5232 45.16 41.5232 44.09C41.5232 43.03 42.6732 42.4 44.5432 42.4ZM44.5432 43.05C43.1832 43.05 42.3532 43.43 42.3532 44.09C42.3532 44.74 43.1832 45.12 44.5432 45.12C45.9032 45.12 46.7332 44.74 46.7332 44.09C46.7332 43.43 45.9032 43.05 44.5432 43.05ZM42.3832 37.65H43.0632V38.38C43.0632 40.05 42.0432 41.48 40.5432 42.04L40.1132 41.38C41.4532 40.89 42.3832 39.68 42.3832 38.38V37.65ZM42.5432 37.65H43.2132V38.38C43.2132 39.55 44.0932 40.67 45.4032 41.13L44.9832 41.79C43.5132 41.26 42.5432 39.9 42.5432 38.38V37.65ZM40.3632 37.4H45.1932V38.08H40.3632V37.4ZM49.0425 43.94H57.2325V44.63H49.0425V43.94ZM52.7025 41.78H53.5325V44.14H52.7025V41.78ZM50.0025 37.38H50.8225V38.99H55.4325V37.38H56.2525V42H50.0025V37.38ZM50.8225 39.66V41.32H55.4325V39.66H50.8225Z" fill="black"/>
</g>
</svg>
