<svg width="75" height="49" viewBox="0 0 75 49" fill="none" xmlns="http://www.w3.org/2000/svg">
<g>
<path d="M25.9383 36.73H26.7683V43.28H25.9383V36.73ZM26.5183 39.42H28.1083V40.11H26.5183V39.42ZM20.1683 41H20.8683C22.7283 41 23.7783 40.95 24.9883 40.7L25.0783 41.37C23.8383 41.63 22.7683 41.69 20.8683 41.69H20.1683V41ZM20.1683 37.51H24.1583V38.2H20.9883V41.37H20.1683V37.51ZM21.1383 44.9H27.1783V45.58H21.1383V44.9ZM21.1383 42.63H21.9683V45.21H21.1383V42.63ZM31.6675 37.16C33.0175 37.16 33.9775 37.91 33.9775 39.02C33.9775 40.12 33.0175 40.89 31.6675 40.89C30.3275 40.89 29.3675 40.12 29.3675 39.02C29.3675 37.91 30.3275 37.16 31.6675 37.16ZM31.6675 37.85C30.7875 37.85 30.1575 38.33 30.1575 39.02C30.1575 39.72 30.7875 40.19 31.6675 40.19C32.5475 40.19 33.1775 39.72 33.1775 39.02C33.1775 38.33 32.5475 37.85 31.6675 37.85ZM31.2975 41.89H32.1275V45.5H31.2975V41.89ZM35.2975 36.74H36.1175V45.79H35.2975V36.74ZM28.8075 42.34L28.6975 41.64C30.3775 41.64 32.6675 41.62 34.6575 41.32L34.7175 41.94C32.6775 42.31 30.4575 42.34 28.8075 42.34ZM43.8432 37.32H44.7132C44.7132 39.6 43.1132 41.23 40.5132 41.96L40.1732 41.31C42.4632 40.66 43.8432 39.35 43.8432 37.67V37.32ZM40.6432 37.32H44.4032V37.99H40.6432V37.32ZM46.6832 36.74H47.5132V41.9H46.6832V36.74ZM44.7232 39.06H46.8432V39.75H44.7232V39.06ZM41.6832 42.28H47.5132V45.66H41.6832V42.28ZM46.7032 42.95H42.5032V44.98H46.7032V42.95ZM50.9325 37.28H51.5925V38.49C51.5925 39.85 50.8225 41.28 49.4925 41.89L49.0425 41.24C50.2225 40.71 50.9325 39.52 50.9325 38.49V37.28ZM51.0625 37.28H51.7225V38.49C51.7225 39.52 52.3925 40.55 53.5525 41.02L53.1125 41.66C51.8025 41.11 51.0625 39.84 51.0625 38.49V37.28ZM55.8625 36.75H56.6525V42.21H55.8625V36.75ZM54.4025 39.09H56.1125V39.78H54.4025V39.09ZM53.9225 36.9H54.7125V42.16H53.9225V36.9ZM50.5925 42.7H56.6525V45.78H55.8325V43.38H50.5925V42.7Z" fill= "#808080" />
<path d="M37 26C41.4183 26 45 22.4183 45 18C45 13.5817 41.4183 10 37 10C32.5817 10 29 13.5817 29 18C29 22.4183 32.5817 26 37 26Z" stroke="#808080" stroke-width="2" stroke-linecap="round" stroke-linejoin="round"/>
<path d="M47 27.9999L42.65 23.6499" stroke="#808080" stroke-width="2" stroke-linecap="round" stroke-linejoin="round"/>
</g>
</svg>
