<svg width="75" height="49" viewBox="0 0 75 49" fill="none" xmlns="http://www.w3.org/2000/svg">
<g opacity="0.5">
<path d="M17.6691 36.74H18.4691V45.78H17.6691V36.74ZM16.1391 40.36H17.8791V41.05H16.1391V40.36ZM15.6191 36.94H16.3991V45.32H15.6191V36.94ZM11.1191 42.86H11.7091C13.0291 42.86 13.9291 42.81 14.9791 42.59L15.0591 43.28C13.9791 43.51 13.0691 43.55 11.7091 43.55H11.1191V42.86ZM11.1191 37.84H14.4791V38.52H11.9391V43.17H11.1191V37.84ZM23.8283 38.75H26.5583V39.44H23.8283V38.75ZM23.8283 41.61H26.5583V42.3H23.8283V41.61ZM22.1683 37.43C23.4783 37.43 24.4183 38.66 24.4183 40.58C24.4183 42.51 23.4783 43.74 22.1683 43.74C20.8483 43.74 19.9183 42.51 19.9183 40.58C19.9183 38.66 20.8483 37.43 22.1683 37.43ZM22.1683 38.18C21.2983 38.18 20.6983 39.12 20.6983 40.58C20.6983 42.05 21.2983 43.01 22.1683 43.01C23.0383 43.01 23.6383 42.05 23.6383 40.58C23.6383 39.12 23.0383 38.18 22.1683 38.18ZM26.3783 36.73H27.1983V45.79H26.3783V36.73ZM32.3775 41.01H33.1975V42.4H32.3775V41.01ZM28.7075 40.55H36.8775V41.22H28.7075V40.55ZM29.7675 37.04H35.8175V39.79H29.7675V37.04ZM35.0075 37.7H30.5875V39.13H35.0075V37.7ZM29.6975 42.1H35.8375V44.13H30.5375V45.23H29.7175V43.53H35.0175V42.74H29.6975V42.1ZM29.7175 45.03H36.1075V45.68H29.7175V45.03ZM41.3468 41.54H42.1668V43.1H41.3468V41.54ZM37.6668 41.1H45.8368V41.78H37.6668V41.1ZM38.4268 37.02H45.0668V37.7H38.4268V37.02ZM38.4668 39.59H45.0268V40.27H38.4668V39.59ZM39.7968 37.32H40.6268V40.03H39.7968V37.32ZM42.8768 37.32H43.6968V40.03H42.8768V37.32ZM38.6668 42.83H44.8368V45.66H38.6668V42.83ZM44.0268 43.49H39.4868V44.99H44.0268V43.49ZM52.7125 42.49H53.5325V45.79H52.7125V42.49ZM49.0425 42.2H57.2125V42.89H49.0425V42.2ZM52.7025 38.29H53.4325V38.52C53.4325 40.08 51.7425 41.23 49.8425 41.52L49.5525 40.86C51.1825 40.64 52.7025 39.65 52.7025 38.52V38.29ZM52.8125 38.29H53.5325V38.52C53.5325 39.64 55.0625 40.64 56.6825 40.86L56.3825 41.52C54.4925 41.24 52.8125 40.06 52.8125 38.52V38.29ZM49.8325 37.85H56.4225V38.53H49.8325V37.85ZM52.7125 36.74H53.5325V38.09H52.7125V36.74ZM64.1117 36.73H64.9517V45.78H64.1117V36.73ZM64.7217 40.4H66.3917V41.09H64.7217V40.4ZM61.8017 37.71H62.6117C62.6117 40.28 61.4317 42.6 58.5117 44.07L58.0517 43.43C60.5517 42.16 61.8017 40.23 61.8017 37.84V37.71ZM58.4717 37.71H62.2317V38.39H58.4717V37.71Z" fill="black"/>
</g>
</svg>
