<svg width="75" height="49" viewBox="0 0 75 49" fill="#808080" xmlns="http://www.w3.org/2000/svg">
<path fill-rule="evenodd" clip-rule="evenodd" d="M37.3861 8.21065C37.7472 7.92978 38.2528 7.92978 38.6139 8.21065L47.6139 15.2106C47.8575 15.4001 48 15.6914 48 16V27C48 27.7957 47.6839 28.5587 47.1213 29.1213C46.5587 29.6839 45.7957 30 45 30H41V21C41 19.8954 40.1046 19 39 19H37C35.8954 19 35 19.8954 35 21V30H31C30.2043 30 29.4413 29.6839 28.8787 29.1213C28.3161 28.5587 28 27.7957 28 27V16C28 15.6914 28.1425 15.4001 28.3861 15.2106L37.3861 8.21065Z" />
<path d="M27.8316 36.74H28.6316V45.78H27.8316V36.74ZM26.3016 40.36H28.0416V41.05H26.3016V40.36ZM25.7816 36.94H26.5616V45.32H25.7816V36.94ZM21.2816 42.86H21.8716C23.1916 42.86 24.0916 42.81 25.1416 42.59L25.2216 43.28C24.1416 43.51 23.2316 43.55 21.8716 43.55H21.2816V42.86ZM21.2816 37.84H24.6416V38.52H22.1016V43.17H21.2816V37.84ZM33.9908 38.75H36.7208V39.44H33.9908V38.75ZM33.9908 41.61H36.7208V42.3H33.9908V41.61ZM32.3308 37.43C33.6408 37.43 34.5808 38.66 34.5808 40.58C34.5808 42.51 33.6408 43.74 32.3308 43.74C31.0108 43.74 30.0808 42.51 30.0808 40.58C30.0808 38.66 31.0108 37.43 32.3308 37.43ZM32.3308 38.18C31.4608 38.18 30.8608 39.12 30.8608 40.58C30.8608 42.05 31.4608 43.01 32.3308 43.01C33.2008 43.01 33.8008 42.05 33.8008 40.58C33.8008 39.12 33.2008 38.18 32.3308 38.18ZM36.5408 36.73H37.3608V45.79H36.5408V36.73ZM45 36.74H45.83V45.78H45V36.74ZM45.63 40.45H47.31V41.15H45.63V40.45ZM38.83 38.18H44.16V38.86H38.83V38.18ZM41.53 39.61C42.81 39.61 43.73 40.47 43.73 41.69C43.73 42.91 42.81 43.77 41.53 43.77C40.26 43.77 39.33 42.91 39.33 41.69C39.33 40.47 40.26 39.61 41.53 39.61ZM41.53 40.3C40.71 40.3 40.12 40.87 40.12 41.69C40.12 42.5 40.71 43.08 41.53 43.08C42.35 43.08 42.94 42.5 42.94 41.69C42.94 40.87 42.35 40.3 41.53 40.3ZM41.1 36.85H41.93V38.49H41.1V36.85ZM54.4192 36.74H55.2492V45.78H54.4192V36.74ZM51.7692 37.71H52.5892C52.5892 40.33 51.4092 42.62 48.3892 44.1L47.9492 43.43C50.5592 42.17 51.7692 40.25 51.7692 37.85V37.71ZM48.3592 37.71H52.1292V38.39H48.3592V37.71Z" />
<path d="M27.8316 36.74H28.6316V45.78H27.8316V36.74ZM26.3016 40.36H28.0416V41.05H26.3016V40.36ZM25.7816 36.94H26.5616V45.32H25.7816V36.94ZM21.2816 42.86H21.8716C23.1916 42.86 24.0916 42.81 25.1416 42.59L25.2216 43.28C24.1416 43.51 23.2316 43.55 21.8716 43.55H21.2816V42.86ZM21.2816 37.84H24.6416V38.52H22.1016V43.17H21.2816V37.84ZM33.9908 38.75H36.7208V39.44H33.9908V38.75ZM33.9908 41.61H36.7208V42.3H33.9908V41.61ZM32.3308 37.43C33.6408 37.43 34.5808 38.66 34.5808 40.58C34.5808 42.51 33.6408 43.74 32.3308 43.74C31.0108 43.74 30.0808 42.51 30.0808 40.58C30.0808 38.66 31.0108 37.43 32.3308 37.43ZM32.3308 38.18C31.4608 38.18 30.8608 39.12 30.8608 40.58C30.8608 42.05 31.4608 43.01 32.3308 43.01C33.2008 43.01 33.8008 42.05 33.8008 40.58C33.8008 39.12 33.2008 38.18 32.3308 38.18ZM36.5408 36.73H37.3608V45.79H36.5408V36.73ZM45 36.74H45.83V45.78H45V36.74ZM45.63 40.45H47.31V41.15H45.63V40.45ZM38.83 38.18H44.16V38.86H38.83V38.18ZM41.53 39.61C42.81 39.61 43.73 40.47 43.73 41.69C43.73 42.91 42.81 43.77 41.53 43.77C40.26 43.77 39.33 42.91 39.33 41.69C39.33 40.47 40.26 39.61 41.53 39.61ZM41.53 40.3C40.71 40.3 40.12 40.87 40.12 41.69C40.12 42.5 40.71 43.08 41.53 43.08C42.35 43.08 42.94 42.5 42.94 41.69C42.94 40.87 42.35 40.3 41.53 40.3ZM41.1 36.85H41.93V38.49H41.1V36.85ZM54.4192 36.74H55.2492V45.78H54.4192V36.74ZM51.7692 37.71H52.5892C52.5892 40.33 51.4092 42.62 48.3892 44.1L47.9492 43.43C50.5592 42.17 51.7692 40.25 51.7692 37.85V37.71ZM48.3592 37.71H52.1292V38.39H48.3592V37.71Z"/>
</svg>
