<svg width="75" height="49" viewBox="0 0 75 49" fill="none" xmlns="http://www.w3.org/2000/svg">
<g opacity="0.5">
<path d="M22.3283 42.16H23.1683V43.65H22.3283V42.16ZM26.2883 36.74H27.1183V45.78H26.2883V36.74ZM19.9183 44.06L19.8083 43.37C21.5183 43.36 23.7683 43.34 25.7183 43.09L25.7783 43.7C23.7683 44.04 21.5883 44.06 19.9183 44.06ZM19.9983 37.84H25.4883V38.51H19.9983V37.84ZM22.7383 39.03C24.0383 39.03 24.9183 39.69 24.9183 40.7C24.9183 41.72 24.0383 42.37 22.7383 42.37C21.4483 42.37 20.5683 41.72 20.5683 40.7C20.5683 39.69 21.4483 39.03 22.7383 39.03ZM22.7383 39.67C21.9283 39.67 21.3583 40.08 21.3583 40.7C21.3583 41.32 21.9283 41.73 22.7383 41.73C23.5583 41.73 24.1283 41.32 24.1283 40.7C24.1283 40.08 23.5583 39.67 22.7383 39.67ZM22.3283 36.74H23.1583V38.21H22.3283V36.74ZM31.2775 41.29H32.1075V43.3H31.2775V41.29ZM35.2875 36.74H36.1175V43.62H35.2875V36.74ZM29.9475 44.9H36.3375V45.58H29.9475V44.9ZM29.9475 42.95H30.7775V45.09H29.9475V42.95ZM28.7775 41.6L28.6675 40.92C30.3375 40.92 32.5775 40.9 34.4975 40.65L34.5575 41.26C32.6075 41.57 30.4175 41.6 28.7775 41.6ZM33.4475 42.08H35.4975V42.69H33.4475V42.08ZM31.6075 37.11C32.9275 37.11 33.8275 37.73 33.8275 38.68C33.8275 39.64 32.9275 40.26 31.6075 40.26C30.2775 40.26 29.3775 39.64 29.3775 38.68C29.3775 37.73 30.2775 37.11 31.6075 37.11ZM31.6075 37.73C30.7575 37.73 30.1675 38.1 30.1675 38.68C30.1675 39.26 30.7575 39.63 31.6075 39.63C32.4475 39.63 33.0375 39.26 33.0375 38.68C33.0375 38.1 32.4475 37.73 31.6075 37.73ZM40.5632 37.44H44.5632V38.12H40.5632V37.44ZM41.9232 39.46H42.7432V41.72H41.9232V39.46ZM44.2332 37.44H45.0532V37.92C45.0532 38.51 45.0532 39.41 44.8132 40.6L44.0032 40.51C44.2332 39.32 44.2332 38.5 44.2332 37.92V37.44ZM46.2832 36.74H47.1132V43.55H46.2832V36.74ZM46.7332 39.68H48.4032V40.37H46.7332V39.68ZM41.4032 44.9H47.4032V45.58H41.4032V44.9ZM41.4032 42.92H42.2232V45.11H41.4032V42.92ZM40.1032 42.11L40.0132 41.43C41.6232 41.43 43.8432 41.39 45.6732 41.14L45.7332 41.74C43.8532 42.07 41.6932 42.11 40.1032 42.11ZM55.6225 36.73H56.4525V45.79H55.6225V36.73ZM49.5625 42.92H50.3125C51.8225 42.92 53.1725 42.86 54.7725 42.6L54.8625 43.28C53.2225 43.55 51.8625 43.61 50.3125 43.61H49.5625V42.92ZM49.5425 37.58H53.7225V40.81H50.3925V43.18H49.5625V40.13H52.8825V38.26H49.5425V37.58Z" fill="black"/>
</g>
</svg>
