<svg width="75" height="49" viewBox="0 0 75 49" fill="none" xmlns="http://www.w3.org/2000/svg">
<g opacity="0.5">
<path d="M17.3691 36.74H18.2091V41.59H17.3691V36.74ZM12.3791 42.04H13.1991V43.14H17.3891V42.04H18.2091V45.66H12.3791V42.04ZM13.1991 43.8V44.99H17.3891V43.8H13.1991ZM13.3591 37.17C14.7291 37.17 15.7091 38.02 15.7091 39.25C15.7091 40.49 14.7291 41.34 13.3591 41.34C11.9891 41.34 10.9991 40.49 10.9991 39.25C10.9991 38.02 11.9891 37.17 13.3591 37.17ZM13.3591 37.86C12.4591 37.86 11.8091 38.43 11.8091 39.25C11.8091 40.07 12.4591 40.64 13.3591 40.64C14.2591 40.64 14.9091 40.07 14.9091 39.25C14.9091 38.43 14.2591 37.86 13.3591 37.86ZM19.7483 42.09H27.9483V42.77H19.7483V42.09ZM23.4083 42.41H24.2283V45.78H23.4083V42.41ZM20.7783 37.1H21.6083V38.34H26.0783V37.1H26.8983V41.01H20.7783V37.1ZM21.6083 39.01V40.34H26.0783V39.01H21.6083ZM35.2875 36.75H36.1275V43.37H35.2875V36.75ZM30.3175 44.9H36.3975V45.58H30.3175V44.9ZM30.3175 42.76H31.1375V45.22H30.3175V42.76ZM31.0675 37.24H31.7575V38.16C31.7575 39.92 30.7575 41.46 29.2375 42.08L28.8075 41.41C30.1675 40.88 31.0675 39.56 31.0675 38.16V37.24ZM31.2175 37.24H31.8975V38.16C31.8975 39.52 32.8075 40.75 34.1575 41.24L33.7175 41.91C32.2175 41.33 31.2175 39.88 31.2175 38.16V37.24ZM39.9268 38.28H40.6068V38.67C40.6068 40.24 39.6068 41.56 38.0968 42.07L37.6968 41.42C39.0268 40.99 39.9268 39.89 39.9268 38.67V38.28ZM40.0768 38.28H40.7568V38.67C40.7568 39.79 41.6868 40.8 43.0168 41.19L42.6368 41.84C41.1168 41.37 40.0768 40.15 40.0768 38.67V38.28ZM37.9268 37.83H42.7468V38.5H37.9268V37.83ZM39.9268 36.7H40.7568V38.07H39.9268V36.7ZM42.4768 39.31H44.5168V40H42.4768V39.31ZM44.2768 36.74H45.1068V42.21H44.2768V36.74ZM42.1368 42.45C44.0068 42.45 45.1468 43.06 45.1468 44.11C45.1468 45.15 44.0068 45.76 42.1368 45.76C40.2568 45.76 39.1168 45.15 39.1168 44.11C39.1168 43.06 40.2568 42.45 42.1368 42.45ZM42.1368 43.1C40.7668 43.1 39.9468 43.47 39.9468 44.11C39.9468 44.74 40.7668 45.11 42.1368 45.11C43.4968 45.11 44.3268 44.74 44.3268 44.11C44.3268 43.47 43.4968 43.1 42.1368 43.1ZM55.9025 36.74H56.7025V45.78H55.9025V36.74ZM54.3825 40.42H56.1225V41.1H54.3825V40.42ZM53.8525 36.94H54.6325V45.32H53.8525V36.94ZM49.4725 37.83H50.3025V43.05H49.4725V37.83ZM49.4725 42.72H50.0525C50.9825 42.72 52.0225 42.66 53.2025 42.43L53.2925 43.15C52.0625 43.39 51.0225 43.44 50.0525 43.44H49.4725V42.72ZM62.1117 38.07H64.8717V38.75H62.1117V38.07ZM62.1117 40.09H64.8717V40.78H62.1117V40.09ZM59.4017 42.57H65.4317V45.78H64.6017V43.24H59.4017V42.57ZM64.6017 36.74H65.4317V42.07H64.6017V36.74ZM60.4617 37.24C61.7917 37.24 62.7917 38.14 62.7917 39.42C62.7917 40.7 61.7917 41.59 60.4617 41.59C59.1217 41.59 58.1317 40.7 58.1317 39.42C58.1317 38.14 59.1217 37.24 60.4617 37.24ZM60.4617 37.95C59.5817 37.95 58.9317 38.56 58.9317 39.42C58.9317 40.28 59.5817 40.88 60.4617 40.88C61.3417 40.88 62.0017 40.28 62.0017 39.42C62.0017 38.56 61.3417 37.95 60.4617 37.95Z" fill="black"/>
</g>
</svg>
