<svg width="75" height="49" viewBox="0 0 75 49" fill="none" xmlns="http://www.w3.org/2000/svg">
<g opacity="0.5">
<path d="M27.1416 36.75H27.9716V43.38H27.1416V36.75ZM27.7116 39.48H29.3116V40.17H27.7116V39.48ZM22.3416 44.9H28.3816V45.58H22.3416V44.9ZM22.3416 42.74H23.1716V45.06H22.3416V42.74ZM21.3316 37.39H22.1516V38.9H24.7016V37.39H25.5116V41.87H21.3316V37.39ZM22.1516 39.55V41.2H24.7016V39.55H22.1516ZM36.1008 36.74H36.9408V41.45H36.1008V36.74ZM36.7108 38.75H38.2708V39.44H36.7108V38.75ZM30.3508 37.15H31.1808V40.77H30.3508V37.15ZM30.3508 40.33H31.0608C32.3608 40.33 33.7108 40.24 35.1908 39.94L35.2908 40.62C33.7608 40.93 32.4108 41.03 31.0608 41.03H30.3508V40.33ZM31.2208 41.92H32.0408V43.12H36.1108V41.92H36.9308V45.66H31.2208V41.92ZM32.0408 43.79V44.99H36.1108V43.79H32.0408ZM45 36.74H45.83V45.78H45V36.74ZM45.63 40.45H47.31V41.15H45.63V40.45ZM38.83 38.18H44.16V38.86H38.83V38.18ZM41.53 39.61C42.81 39.61 43.73 40.47 43.73 41.69C43.73 42.91 42.81 43.77 41.53 43.77C40.26 43.77 39.33 42.91 39.33 41.69C39.33 40.47 40.26 39.61 41.53 39.61ZM41.53 40.3C40.71 40.3 40.12 40.87 40.12 41.69C40.12 42.5 40.71 43.08 41.53 43.08C42.35 43.08 42.94 42.5 42.94 41.69C42.94 40.87 42.35 40.3 41.53 40.3ZM41.1 36.85H41.93V38.49H41.1V36.85ZM54.4192 36.74H55.2492V45.78H54.4192V36.74ZM51.7692 37.71H52.5892C52.5892 40.33 51.4092 42.62 48.3892 44.1L47.9492 43.43C50.5592 42.17 51.7692 40.25 51.7692 37.85V37.71ZM48.3592 37.71H52.1292V38.39H48.3592V37.71Z" fill="black"/>
<path d="M26 9.99995V15.9999M26 15.9999H32M26 15.9999L30.64 11.6399C32.0209 10.2614 33.8125 9.36892 35.7447 9.09707C37.6769 8.82521 39.6451 9.18868 41.3528 10.1327C43.0605 11.0767 44.4152 12.5502 45.2126 14.331C46.0101 16.1119 46.2072 18.1037 45.7742 20.0063C45.3413 21.9089 44.3017 23.6193 42.8121 24.8797C41.3226 26.1401 39.4637 26.8823 37.5157 26.9944C35.5677 27.1065 33.636 26.5825 32.0117 25.5013C30.3873 24.4201 29.1584 22.8403 28.51 20.9999" stroke="#1E1E1E" stroke-width="2" stroke-linecap="round" stroke-linejoin="round"/>
</g>
</svg>
