<svg width="96" height="28" viewBox="0 0 96 28" fill="none" xmlns="http://www.w3.org/2000/svg">
<path d="M3.8437 27V2.88H11.1517V27H3.8437ZM0.855704 13.86V7.74H14.3197V13.86H0.855704ZM23.9064 27.324C22.2984 27.324 20.8704 26.904 19.6224 26.064C18.3744 25.2 17.3904 24.024 16.6704 22.536C15.9504 21.024 15.5904 19.296 15.5904 17.352C15.5904 15.384 15.9384 13.656 16.6344 12.168C17.3544 10.656 18.3384 9.48 19.5864 8.64C20.8584 7.776 22.3224 7.344 23.9784 7.344C24.8424 7.344 25.6344 7.464 26.3544 7.704C27.0744 7.944 27.7104 8.28 28.2624 8.712C28.8144 9.144 29.2944 9.648 29.7024 10.224C30.1104 10.776 30.4584 11.376 30.7464 12.024L29.2704 11.988V7.74H36.4344V27H29.0904V22.284L30.7104 22.428C30.4704 23.124 30.1344 23.772 29.7024 24.372C29.2944 24.972 28.8024 25.488 28.2264 25.92C27.6504 26.352 27.0024 26.7 26.2824 26.964C25.5624 27.204 24.7704 27.324 23.9064 27.324ZM25.9944 21.384C26.6904 21.384 27.2784 21.228 27.7584 20.916C28.2624 20.604 28.6344 20.148 28.8744 19.548C29.1384 18.948 29.2704 18.216 29.2704 17.352C29.2704 16.488 29.1384 15.756 28.8744 15.156C28.6344 14.532 28.2624 14.064 27.7584 13.752C27.2784 13.44 26.6904 13.284 25.9944 13.284C25.2984 13.284 24.7104 13.44 24.2304 13.752C23.7504 14.064 23.3784 14.532 23.1144 15.156C22.8744 15.756 22.7544 16.488 22.7544 17.352C22.7544 18.216 22.8744 18.948 23.1144 19.548C23.3784 20.148 23.7504 20.604 24.2304 20.916C24.7104 21.228 25.2984 21.384 25.9944 21.384ZM48.268 21.6L44.668 17.064L53.56 7.74H63.064L48.268 21.6ZM41.104 27V0.36H48.412V27H41.104ZM54.208 27L47.8 17.964L52.912 14.292L62.56 27H54.208ZM70.8934 27.324C69.2854 27.324 67.8574 26.904 66.6094 26.064C65.3614 25.2 64.3774 24.024 63.6574 22.536C62.9374 21.024 62.5774 19.296 62.5774 17.352C62.5774 15.384 62.9254 13.656 63.6214 12.168C64.3414 10.656 65.3254 9.48 66.5734 8.64C67.8454 7.776 69.3094 7.344 70.9654 7.344C71.8294 7.344 72.6214 7.464 73.3414 7.704C74.0614 7.944 74.6974 8.28 75.2494 8.712C75.8014 9.144 76.2814 9.648 76.6894 10.224C77.0974 10.776 77.4454 11.376 77.7334 12.024L76.2574 11.988V7.74H83.4214V27H76.0774V22.284L77.6974 22.428C77.4574 23.124 77.1214 23.772 76.6894 24.372C76.2814 24.972 75.7894 25.488 75.2134 25.92C74.6374 26.352 73.9894 26.7 73.2694 26.964C72.5494 27.204 71.7574 27.324 70.8934 27.324ZM72.9814 21.384C73.6774 21.384 74.2654 21.228 74.7454 20.916C75.2494 20.604 75.6214 20.148 75.8614 19.548C76.1254 18.948 76.2574 18.216 76.2574 17.352C76.2574 16.488 76.1254 15.756 75.8614 15.156C75.6214 14.532 75.2494 14.064 74.7454 13.752C74.2654 13.44 73.6774 13.284 72.9814 13.284C72.2854 13.284 71.6974 13.44 71.2174 13.752C70.7374 14.064 70.3654 14.532 70.1014 15.156C69.8614 15.756 69.7414 16.488 69.7414 17.352C69.7414 18.216 69.8614 18.948 70.1014 19.548C70.3654 20.148 70.7374 20.604 71.2174 20.916C71.6974 21.228 72.2854 21.384 72.9814 21.384ZM89.783 17.424C89.567 16.008 89.339 14.544 89.099 13.032C88.859 11.52 88.655 10.02 88.487 8.532C88.343 7.02 88.271 5.556 88.271 4.14V1.08H95.975V4.14C95.975 5.556 95.891 7.02 95.723 8.532C95.579 10.02 95.387 11.52 95.147 13.032C94.907 14.544 94.679 16.008 94.463 17.424H89.783ZM92.159 27.396C91.031 27.396 90.155 27.084 89.531 26.46C88.907 25.836 88.595 24.948 88.595 23.796C88.595 22.74 88.919 21.876 89.567 21.204C90.239 20.532 91.103 20.196 92.159 20.196C93.287 20.196 94.163 20.508 94.787 21.132C95.411 21.756 95.723 22.644 95.723 23.796C95.723 24.852 95.387 25.716 94.715 26.388C94.067 27.06 93.215 27.396 92.159 27.396Z" fill="black"/>
</svg>
